<svg xmlns="http://www.w3.org/2000/svg" version="1.1" xmlns:xlink="http://www.w3.org/1999/xlink" xmlns:svgjs="http://svgjs.com/svgjs" width="62" height="62"><svg xmlns="http://www.w3.org/2000/svg" width="62" height="62" viewBox="0 0 62 62" fill="none">
  <path fill-rule="evenodd" clip-rule="evenodd" d="M18.6117 38.5233H4.95271C2.2343 38.5233 0.00976562 40.7077 0.00976562 43.3777V56.7896C0.00976562 59.459 2.2343 61.6434 4.95271 61.6434H18.6111C21.3301 61.6434 23.5547 59.459 23.5547 56.7896V43.3777C23.5547 40.7077 21.3301 38.5233 18.6111 38.5233H18.6117Z" fill="#1B1F25"></path>
  <path fill-rule="evenodd" clip-rule="evenodd" d="M16.7051 13.4634H4.95271C2.2343 13.4634 0.00976562 15.6478 0.00976562 18.3177V31.7297C0.00976562 34.3997 2.2343 36.5835 4.95271 36.5835H18.6111C18.7256 36.5835 18.8389 36.5793 18.9515 36.5715C13.5829 29.9406 12.7852 20.84 16.7051 13.4634Z" fill="#F94701"></path>
  <path fill-rule="evenodd" clip-rule="evenodd" d="M25.5173 42.9932C25.507 43.1199 25.5015 43.2479 25.5015 43.3771V56.789C25.5015 59.459 27.726 61.6428 30.4451 61.6428H44.1035C46.8225 61.6428 49.0464 59.4584 49.0464 56.789V43.3771C49.0464 43.1492 49.03 42.9244 48.9983 42.7043C41.9709 47.3434 32.7305 47.5019 25.5167 42.9926L25.5173 42.9932Z" fill="#F94701"></path>
  <path fill-rule="evenodd" clip-rule="evenodd" d="M40.3096 26.7731C44.6692 27.8578 48.1123 31.1993 49.2742 35.4575C52.2124 32.4897 54.0222 28.4385 54.0222 23.9722C54.0222 14.8716 46.5089 7.49441 37.2417 7.49441C27.9745 7.49441 20.4605 14.8722 20.4605 23.9722C20.4605 28.4385 22.2704 32.4897 25.2086 35.4575C26.3699 31.1993 29.8136 27.8578 34.1731 26.7731C31.185 25.5825 29.0779 22.7039 29.0779 19.3427C29.0779 14.9153 32.7329 11.3262 37.2417 11.3262C41.7504 11.3262 45.4048 14.9153 45.4048 19.3427C45.4048 22.7039 43.2978 25.5825 40.3102 26.7731H40.3096Z" fill="#1B1F25"></path>
  <path d="M37.2411 0C43.9823 0 50.0853 2.68311 54.5033 7.02141C58.9213 11.3597 61.6537 17.3532 61.6537 23.9728C61.6537 30.5924 58.9207 36.5853 54.5033 40.9242C50.0853 45.2625 43.9823 47.9456 37.2411 47.9456C31.6685 47.9456 26.5319 46.1122 22.4232 43.0254L20.1749 45.2332C20.6396 46.8692 20.22 48.702 18.9162 49.9823L8.31418 60.393C7.68086 61.0149 6.91478 61.4317 6.10365 61.644H4.95332C2.2343 61.644 0.0103746 59.4596 0.0103746 56.7902V55.8496C0.211941 54.9969 0.649175 54.1884 1.32269 53.5277L11.9247 43.1169C13.2285 41.8367 15.095 41.4247 16.7605 41.8809L18.8937 39.7862C15.1181 35.5657 12.8284 30.0321 12.8284 23.9734C12.8284 17.3538 15.5608 11.3609 19.9788 7.02201C24.3962 2.68311 30.4999 0 37.2411 0ZM51.8963 9.58134C48.1458 5.89902 42.9641 3.62073 37.2411 3.62073C31.5181 3.62073 26.3358 5.89902 22.5852 9.58134C18.8346 13.2643 16.5151 18.3524 16.5151 23.9722C16.5151 29.592 18.8346 34.6807 22.5852 38.3636C26.3358 42.0466 31.5168 44.3242 37.2411 44.3242C42.9653 44.3242 48.1458 42.0466 51.8963 38.3636C55.6463 34.6807 57.9665 29.5926 57.9665 23.9722C57.9665 18.3518 55.6463 13.2637 51.8963 9.58134Z" fill="#6B7687"></path>
</svg><style>@media (prefers-color-scheme: light) { :root { filter: none; } }
</style></svg>