<svg width="200" height="62" viewBox="0 0 200 62" fill="none" xmlns="http://www.w3.org/2000/svg">
<path fill-rule="evenodd" clip-rule="evenodd" d="M18.6117 38.5233H4.95271C2.2343 38.5233 0.00976562 40.7077 0.00976562 43.3777V56.7896C0.00976562 59.459 2.2343 61.6434 4.95271 61.6434H18.6111C21.3301 61.6434 23.5547 59.459 23.5547 56.7896V43.3777C23.5547 40.7077 21.3301 38.5233 18.6111 38.5233H18.6117Z" fill="#1B1F25"/>
<path fill-rule="evenodd" clip-rule="evenodd" d="M16.7051 13.4634H4.95271C2.2343 13.4634 0.00976562 15.6478 0.00976562 18.3177V31.7297C0.00976562 34.3997 2.2343 36.5835 4.95271 36.5835H18.6111C18.7256 36.5835 18.8389 36.5793 18.9515 36.5715C13.5829 29.9406 12.7852 20.84 16.7051 13.4634Z" fill="#F94701"/>
<path fill-rule="evenodd" clip-rule="evenodd" d="M25.5173 42.9932C25.507 43.1199 25.5015 43.2479 25.5015 43.3771V56.789C25.5015 59.459 27.726 61.6428 30.4451 61.6428H44.1035C46.8225 61.6428 49.0464 59.4584 49.0464 56.789V43.3771C49.0464 43.1492 49.03 42.9244 48.9983 42.7043C41.9709 47.3434 32.7305 47.5019 25.5167 42.9926L25.5173 42.9932Z" fill="#F94701"/>
<path fill-rule="evenodd" clip-rule="evenodd" d="M40.3096 26.7731C44.6692 27.8578 48.1123 31.1993 49.2742 35.4575C52.2124 32.4897 54.0222 28.4385 54.0222 23.9722C54.0222 14.8716 46.5089 7.49441 37.2417 7.49441C27.9745 7.49441 20.4605 14.8722 20.4605 23.9722C20.4605 28.4385 22.2704 32.4897 25.2086 35.4575C26.3699 31.1993 29.8136 27.8578 34.1731 26.7731C31.185 25.5825 29.0779 22.7039 29.0779 19.3427C29.0779 14.9153 32.7329 11.3262 37.2417 11.3262C41.7504 11.3262 45.4048 14.9153 45.4048 19.3427C45.4048 22.7039 43.2978 25.5825 40.3102 26.7731H40.3096Z" fill="#1B1F25"/>
<path d="M37.2411 0C43.9823 0 50.0853 2.68311 54.5033 7.02141C58.9213 11.3597 61.6537 17.3532 61.6537 23.9728C61.6537 30.5924 58.9207 36.5853 54.5033 40.9242C50.0853 45.2625 43.9823 47.9456 37.2411 47.9456C31.6685 47.9456 26.5319 46.1122 22.4232 43.0254L20.1749 45.2332C20.6396 46.8692 20.22 48.702 18.9162 49.9823L8.31418 60.393C7.68086 61.0149 6.91478 61.4317 6.10365 61.644H4.95332C2.2343 61.644 0.0103746 59.4596 0.0103746 56.7902V55.8496C0.211941 54.9969 0.649175 54.1884 1.32269 53.5277L11.9247 43.1169C13.2285 41.8367 15.095 41.4247 16.7605 41.8809L18.8937 39.7862C15.1181 35.5657 12.8284 30.0321 12.8284 23.9734C12.8284 17.3538 15.5608 11.3609 19.9788 7.02201C24.3962 2.68311 30.4999 0 37.2411 0ZM51.8963 9.58134C48.1458 5.89902 42.9641 3.62073 37.2411 3.62073C31.5181 3.62073 26.3358 5.89902 22.5852 9.58134C18.8346 13.2643 16.5151 18.3524 16.5151 23.9722C16.5151 29.592 18.8346 34.6807 22.5852 38.3636C26.3358 42.0466 31.5168 44.3242 37.2411 44.3242C42.9653 44.3242 48.1458 42.0466 51.8963 38.3636C55.6463 34.6807 57.9665 29.5926 57.9665 23.9722C57.9665 18.3518 55.6463 13.2637 51.8963 9.58134Z" fill="#6B7687"/>
<path d="M97.1914 46.7317C96.0586 46.7317 95.0755 46.5559 94.2422 46.2043C93.4089 45.8528 92.7578 45.3417 92.2891 44.6711C91.8203 43.9941 91.5664 43.1737 91.5273 42.2102H94.125C94.1641 42.718 94.3203 43.1412 94.5938 43.4797C94.8672 43.8118 95.2253 44.0624 95.668 44.2317C96.1172 44.401 96.6152 44.4856 97.1621 44.4856C97.735 44.4856 98.2396 44.3977 98.6758 44.2219C99.112 44.0461 99.4538 43.802 99.7012 43.4895C99.9486 43.177 100.072 42.8124 100.072 42.3958C100.072 42.0181 99.9616 41.7089 99.7402 41.468C99.5189 41.2206 99.2129 41.0123 98.8223 40.843C98.4316 40.6737 97.9727 40.524 97.4453 40.3938L95.7949 39.9641C94.597 39.6581 93.653 39.1926 92.9629 38.5676C92.2728 37.9361 91.9277 37.0963 91.9277 36.0481C91.9277 35.1887 92.1589 34.44 92.6211 33.802C93.0833 33.1575 93.7148 32.6562 94.5156 32.2981C95.3229 31.94 96.2344 31.761 97.25 31.761C98.2852 31.761 99.1934 31.94 99.9746 32.2981C100.756 32.6562 101.368 33.151 101.811 33.7825C102.253 34.414 102.484 35.1399 102.504 35.9602H99.9551C99.89 35.3352 99.6133 34.8534 99.125 34.5149C98.6432 34.1698 98.0085 33.9973 97.2207 33.9973C96.6738 33.9973 96.2018 34.0787 95.8047 34.2415C95.4141 34.4042 95.1146 34.6288 94.9062 34.9153C94.6979 35.2017 94.5938 35.5273 94.5938 35.8918C94.5938 36.2955 94.7142 36.6275 94.9551 36.8879C95.2025 37.1418 95.515 37.3469 95.8926 37.5032C96.2767 37.6594 96.6673 37.7896 97.0645 37.8938L98.4219 38.2356C98.9688 38.3658 99.4961 38.5416 100.004 38.7629C100.512 38.9778 100.967 39.2512 101.371 39.5833C101.781 39.9088 102.104 40.3059 102.338 40.7747C102.579 41.2434 102.699 41.7935 102.699 42.425C102.699 43.2714 102.481 44.0201 102.045 44.6711C101.609 45.3157 100.98 45.8202 100.16 46.1848C99.3398 46.5494 98.3503 46.7317 97.1914 46.7317ZM109.008 46.7219C107.914 46.7219 106.97 46.4941 106.176 46.0383C105.382 45.5761 104.77 44.925 104.34 44.0852C103.917 43.2454 103.705 42.2558 103.705 41.1165C103.705 39.9902 103.917 39.0038 104.34 38.1575C104.763 37.3046 105.359 36.6405 106.127 36.1653C106.895 35.69 107.8 35.4524 108.842 35.4524C109.512 35.4524 110.147 35.5598 110.746 35.7747C111.352 35.9895 111.885 36.3215 112.348 36.7708C112.816 37.22 113.184 37.7929 113.451 38.4895C113.718 39.1796 113.852 40.0032 113.852 40.9602V41.761H104.906V40.0325H112.572L111.371 40.5403C111.371 39.9218 111.277 39.3847 111.088 38.929C110.899 38.4667 110.619 38.1054 110.248 37.845C109.877 37.5846 109.415 37.4543 108.861 37.4543C108.308 37.4543 107.836 37.5846 107.445 37.845C107.055 38.1054 106.758 38.4569 106.557 38.8997C106.355 39.3359 106.254 39.8241 106.254 40.3645V41.5657C106.254 42.2297 106.368 42.7994 106.596 43.2747C106.83 43.7434 107.156 44.1015 107.572 44.3489C107.995 44.5963 108.487 44.72 109.047 44.72C109.411 44.72 109.743 44.6679 110.043 44.5637C110.349 44.4596 110.609 44.3033 110.824 44.095C111.046 43.8801 111.215 43.6165 111.332 43.304L113.734 43.5872C113.578 44.2187 113.288 44.7721 112.865 45.2473C112.449 45.7161 111.911 46.0806 111.254 46.3411C110.603 46.595 109.854 46.7219 109.008 46.7219ZM118.393 46.7317C117.696 46.7317 117.071 46.608 116.518 46.3606C115.964 46.1067 115.528 45.7356 115.209 45.2473C114.89 44.759 114.73 44.1568 114.73 43.4407C114.73 42.8287 114.844 42.3209 115.072 41.9172C115.3 41.5136 115.609 41.1913 116 40.9504C116.397 40.7096 116.843 40.5273 117.338 40.4036C117.833 40.2734 118.344 40.1822 118.871 40.1301C119.516 40.0585 120.036 39.9967 120.434 39.9446C120.831 39.8925 121.117 39.8079 121.293 39.6907C121.475 39.5735 121.566 39.3912 121.566 39.1438V39.095C121.566 38.5676 121.41 38.1575 121.098 37.8645C120.785 37.5715 120.329 37.425 119.73 37.425C119.099 37.425 118.598 37.5618 118.227 37.8352C117.862 38.1086 117.615 38.4309 117.484 38.802L115.092 38.4602C115.281 37.7961 115.593 37.2428 116.029 36.8C116.465 36.3508 116.996 36.0155 117.621 35.7942C118.253 35.5663 118.949 35.4524 119.711 35.4524C120.232 35.4524 120.753 35.5142 121.273 35.6379C121.794 35.7551 122.273 35.9569 122.709 36.2434C123.145 36.5299 123.493 36.914 123.754 37.3958C124.014 37.8775 124.145 38.4797 124.145 39.2024V46.5071H121.674V45.0032H121.596C121.439 45.3027 121.218 45.5859 120.932 45.8528C120.652 46.1132 120.3 46.3248 119.877 46.4875C119.46 46.6503 118.965 46.7317 118.393 46.7317ZM119.047 44.8372C119.568 44.8372 120.017 44.7362 120.395 44.5344C120.772 44.3261 121.065 44.0527 121.273 43.7141C121.482 43.3691 121.586 42.9947 121.586 42.5911V41.3118C121.501 41.3769 121.365 41.4387 121.176 41.4973C120.987 41.5494 120.772 41.5982 120.531 41.6438C120.29 41.6894 120.053 41.7284 119.818 41.761C119.59 41.7935 119.392 41.8196 119.223 41.8391C118.839 41.8912 118.493 41.9791 118.188 42.1028C117.888 42.22 117.65 42.3827 117.475 42.5911C117.299 42.7994 117.211 43.0696 117.211 43.4016C117.211 43.8769 117.383 44.2349 117.729 44.4758C118.074 44.7167 118.513 44.8372 119.047 44.8372ZM126.049 46.5071V35.5891H128.539V37.425H128.656C128.852 36.787 129.193 36.2987 129.682 35.9602C130.17 35.6152 130.727 35.4426 131.352 35.4426C131.488 35.4426 131.645 35.4491 131.82 35.4622C132.003 35.4752 132.152 35.4915 132.27 35.511V37.8743C132.159 37.8352 131.986 37.8027 131.752 37.7766C131.518 37.7506 131.293 37.7375 131.078 37.7375C130.603 37.7375 130.18 37.8385 129.809 38.0403C129.438 38.2421 129.145 38.5188 128.93 38.8704C128.721 39.2219 128.617 39.6321 128.617 40.1008V46.5071H126.049ZM137.543 46.7219C136.456 46.7219 135.521 46.4843 134.74 46.009C133.959 45.5273 133.36 44.8632 132.943 44.0168C132.527 43.1705 132.318 42.1972 132.318 41.0969C132.318 39.9836 132.53 39.0038 132.953 38.1575C133.376 37.3111 133.979 36.6503 134.76 36.175C135.541 35.6933 136.462 35.4524 137.523 35.4524C138.415 35.4524 139.203 35.6152 139.887 35.9407C140.57 36.2662 141.114 36.7252 141.518 37.3176C141.928 37.9036 142.162 38.5904 142.221 39.3782H139.76C139.695 39.0266 139.568 38.7109 139.379 38.4309C139.19 38.151 138.943 37.9296 138.637 37.7668C138.337 37.6041 137.979 37.5227 137.562 37.5227C137.035 37.5227 136.573 37.6659 136.176 37.9524C135.785 38.2323 135.479 38.636 135.258 39.1633C135.036 39.6907 134.926 40.3222 134.926 41.0579C134.926 41.8 135.033 42.4413 135.248 42.9817C135.463 43.5155 135.769 43.929 136.166 44.2219C136.563 44.5084 137.029 44.6516 137.562 44.6516C138.129 44.6516 138.607 44.4856 138.998 44.1536C139.395 43.8215 139.649 43.3625 139.76 42.7766H142.221C142.162 43.5514 141.934 44.2349 141.537 44.8274C141.14 45.4198 140.603 45.8853 139.926 46.2239C139.249 46.5559 138.454 46.7219 137.543 46.7219ZM146.176 40.1204V46.5071H143.607V31.9563H146.117V37.4543H146.254C146.508 36.8359 146.902 36.3476 147.436 35.9895C147.969 35.6314 148.656 35.4524 149.496 35.4524C150.251 35.4524 150.909 35.6119 151.469 35.9309C152.035 36.2499 152.475 36.7154 152.787 37.3274C153.1 37.9394 153.256 38.6848 153.256 39.5637V46.5071H150.678V39.9641C150.678 39.2219 150.489 38.649 150.111 38.2454C149.734 37.8352 149.206 37.6301 148.529 37.6301C148.074 37.6301 147.667 37.7278 147.309 37.9231C146.957 38.1184 146.68 38.4016 146.479 38.7727C146.277 39.1373 146.176 39.5865 146.176 40.1204ZM162.562 46.5071L158.461 31.9563H161.293L163.92 42.6497H164.047L166.85 31.9563H169.438L172.221 42.6594H172.367L174.975 31.9563H177.826L173.715 46.5071H171.107L168.197 36.3118H168.08L165.18 46.5071H162.562ZM182.66 46.7219C181.566 46.7219 180.622 46.4941 179.828 46.0383C179.034 45.5761 178.422 44.925 177.992 44.0852C177.569 43.2454 177.357 42.2558 177.357 41.1165C177.357 39.9902 177.569 39.0038 177.992 38.1575C178.415 37.3046 179.011 36.6405 179.779 36.1653C180.548 35.69 181.452 35.4524 182.494 35.4524C183.165 35.4524 183.799 35.5598 184.398 35.7747C185.004 35.9895 185.538 36.3215 186 36.7708C186.469 37.22 186.837 37.7929 187.104 38.4895C187.37 39.1796 187.504 40.0032 187.504 40.9602V41.761H178.559V40.0325H186.225L185.023 40.5403C185.023 39.9218 184.929 39.3847 184.74 38.929C184.551 38.4667 184.271 38.1054 183.9 37.845C183.529 37.5846 183.067 37.4543 182.514 37.4543C181.96 37.4543 181.488 37.5846 181.098 37.845C180.707 38.1054 180.411 38.4569 180.209 38.8997C180.007 39.3359 179.906 39.8241 179.906 40.3645V41.5657C179.906 42.2297 180.02 42.7994 180.248 43.2747C180.482 43.7434 180.808 44.1015 181.225 44.3489C181.648 44.5963 182.139 44.72 182.699 44.72C183.064 44.72 183.396 44.6679 183.695 44.5637C184.001 44.4596 184.262 44.3033 184.477 44.095C184.698 43.8801 184.867 43.6165 184.984 43.304L187.387 43.5872C187.23 44.2187 186.941 44.7721 186.518 45.2473C186.101 45.7161 185.564 46.0806 184.906 46.3411C184.255 46.595 183.507 46.7219 182.66 46.7219ZM194.691 46.7024C194.073 46.7024 193.555 46.5982 193.139 46.3899C192.729 46.175 192.396 45.9211 192.143 45.6282C191.895 45.3287 191.706 45.0455 191.576 44.7786H191.42V46.5071H188.9V31.9563H191.469V37.3958H191.576C191.706 37.1353 191.892 36.8554 192.133 36.5559C192.374 36.2499 192.699 35.9895 193.109 35.7747C193.526 35.5598 194.057 35.4524 194.701 35.4524C195.541 35.4524 196.299 35.6672 196.977 36.0969C197.654 36.5266 198.191 37.1581 198.588 37.9915C198.992 38.8248 199.193 39.8502 199.193 41.0676C199.193 42.2655 198.998 43.2844 198.607 44.1243C198.217 44.9641 197.68 45.6054 196.996 46.0481C196.319 46.4843 195.551 46.7024 194.691 46.7024ZM193.988 44.593C194.555 44.593 195.027 44.44 195.404 44.134C195.788 43.828 196.078 43.4081 196.273 42.8743C196.469 42.3404 196.566 41.7349 196.566 41.0579C196.566 40.3808 196.469 39.7786 196.273 39.2512C196.078 38.7239 195.792 38.3105 195.414 38.011C195.036 37.7115 194.561 37.5618 193.988 37.5618C193.435 37.5618 192.966 37.705 192.582 37.9915C192.204 38.2779 191.915 38.6848 191.713 39.2122C191.518 39.733 191.42 40.3482 191.42 41.0579C191.42 41.761 191.518 42.3795 191.713 42.9133C191.915 43.4407 192.208 43.8541 192.592 44.1536C192.976 44.4465 193.441 44.593 193.988 44.593Z" fill="#6B7687"/>
</svg>
