<svg xmlns="http://www.w3.org/2000/svg" style="display: none;">
<symbol id="facebook" viewBox="0 0 47 47" fill="none">
  <g clip-path="url(#clip0_308_673)">
    <path d="M35.4634 0H11.5366C5.16512 0 0 5.16512 0 11.5366V35.4634C0 41.8349 5.16512 47 11.5366 47H35.4634C41.8349 47 47 41.8349 47 35.4634V11.5366C47 5.16512 41.8349 0 35.4634 0Z" fill="#2867CC"/>
    <path fill-rule="evenodd" clip-rule="evenodd" d="M23.1559 17.2812V22.4277H17.2246V29.1801H23.1559V47.0006H29.9077V29.1801H35.896L36.9304 22.4277H29.9083V18.0466C29.9083 16.2009 30.8118 14.3979 33.7146 14.3979H37.2065V8.19373H31.9777C26.6446 8.19373 23.1566 11.4251 23.1566 17.2812H23.1559Z" fill="white"/>
  </g>
  <defs>
    <clipPath id="clip0_308_673">
      <rect width="47" height="47" fill="white"/>
    </clipPath>
  </defs>
</symbol>

<symbol id="google" viewBox="0 0 54 54" fill="none">
  <path d="M50.76 27.5625C50.76 25.8075 50.6025 24.12 50.31 22.5H27V32.085H40.32C39.735 35.1675 37.98 37.7775 35.3475 39.5325V45.765H43.38C48.06 41.445 50.76 35.1 50.76 27.5625Z" fill="#4285F4"/>
  <path d="M26.9993 51.75C33.6818 51.75 39.2843 49.545 43.3793 45.765L35.3468 39.5325C33.1418 41.0175 30.3293 41.9175 26.9993 41.9175C20.5643 41.9175 15.0968 37.575 13.1393 31.725H4.9043V38.115C8.9768 46.1925 17.3243 51.75 26.9993 51.75Z" fill="#34A853"/>
  <path d="M13.14 31.7025C12.645 30.2175 12.3525 28.6425 12.3525 27C12.3525 25.3575 12.645 23.7825 13.14 22.2975V15.9075H4.905C3.2175 19.2375 2.25 22.995 2.25 27C2.25 31.005 3.2175 34.7625 4.905 38.0925L11.3175 33.0975L13.14 31.7025Z" fill="#FBBC05"/>
  <path d="M26.9993 12.105C30.6443 12.105 33.8843 13.365 36.4718 15.795L43.5593 8.7075C39.2618 4.7025 33.6818 2.25 26.9993 2.25C17.3243 2.25 8.9768 7.8075 4.9043 15.9075L13.1393 22.2975C15.0968 16.4475 20.5643 12.105 26.9993 12.105Z" fill="#EA4335"/>
</symbol>

<symbol id="tiktok" viewBox="0 0 47 53" fill="none">
  <path d="M35.0233 19.5783C38.3983 21.9896 42.5328 23.4084 46.9984 23.4084V14.8198C46.1533 14.82 45.3103 14.7319 44.4835 14.5568V21.3173C40.0183 21.3173 35.8843 19.8985 32.5084 17.4873V35.0142C32.5084 43.782 25.3971 50.8892 16.6253 50.8892C13.3523 50.8892 10.3103 49.9002 7.7832 48.2041C10.6674 51.1516 14.6897 52.9802 19.1396 52.9802C27.9119 52.9802 35.0236 45.8729 35.0236 37.1048V19.5783H35.0233ZM38.1256 10.9134C36.4008 9.03 35.2683 6.59605 35.0233 3.90522V2.80054H32.6401C33.24 6.22059 35.2861 9.14248 38.1256 10.9134ZM13.3313 41.4759C12.3677 40.213 11.8469 38.6681 11.8492 37.0796C11.8492 33.0696 15.1019 29.8181 19.1149 29.8181C19.8627 29.818 20.6061 29.9324 21.3188 30.1584V21.3779C20.4859 21.2638 19.6453 21.2154 18.805 21.2331V28.0675C18.0918 27.8415 17.3481 27.7267 16.6 27.7274C12.5871 27.7274 9.33456 30.9784 9.33456 34.989C9.33456 37.8248 10.9604 40.2799 13.3313 41.4759Z" fill="#FF004F"/>
  <path d="M32.5079 17.4871C35.8839 19.8983 40.0179 21.3171 44.4831 21.3171V14.5566C41.9906 14.026 39.7841 12.7242 38.1252 10.9134C35.2854 9.1423 33.2395 6.22041 32.6396 2.80054H26.3797V37.1044C26.3655 41.1035 23.1184 44.3417 19.114 44.3417C16.7544 44.3417 14.658 43.2174 13.3304 41.4759C10.9595 40.2799 9.33374 37.8246 9.33374 34.9892C9.33374 30.979 12.5862 27.7276 16.5992 27.7276C17.368 27.7276 18.1091 27.8472 18.8042 28.0677V21.2333C10.1866 21.4113 3.25586 28.4491 3.25586 37.1046C3.25586 41.4253 4.98176 45.3423 7.78292 48.2043C10.31 49.9002 13.3521 50.8894 16.625 50.8894C25.397 50.8894 32.5081 43.7818 32.5081 35.0142V17.4871H32.5079Z" fill="black"/>
  <path d="M44.4841 14.5566V12.7286C42.2365 12.732 40.0331 12.1029 38.1262 10.9132C39.8142 12.7604 42.037 14.034 44.4841 14.5566ZM32.6406 2.8005C32.5834 2.47365 32.5394 2.14465 32.5089 1.81439V0.709717H23.8656V35.0139C23.8518 39.0125 20.6049 42.2507 16.6002 42.2507C15.4245 42.2507 14.3144 41.9717 13.3314 41.4761C14.659 43.2174 16.7554 44.3415 19.115 44.3415C23.119 44.3415 26.3667 41.1037 26.3807 37.1045V2.8005H32.6406ZM18.8056 21.2333V19.2873C18.0834 19.1886 17.3552 19.1391 16.6262 19.1394C7.85353 19.1393 0.742188 26.2468 0.742188 35.0139C0.742188 40.5104 3.53707 45.3545 7.78411 48.2039C4.98295 45.3421 3.25704 41.4249 3.25704 37.1044C3.25704 28.449 10.1876 21.4112 18.8056 21.2333Z" fill="#00F2EA"/>
</symbol>

<symbol id="twitter" viewBox="0 0 50 50" fill="none">
  <path d="M29.3452 20.8944L47.6999 0H43.351L27.4064 18.1386L14.6809 0H0L19.2478 27.4312L0 49.3403H4.34888L21.1765 30.1809L34.6183 49.3403H49.2992L29.3452 20.8944ZM23.3868 27.672L21.4336 24.9387L5.91717 3.2108H12.598L25.1239 20.7526L27.0689 23.4858L43.3489 46.2861H36.6681L23.3868 27.672Z" fill="black"/>
</symbol>

<svg id="telegram" viewBox="0 0 44 44">
<path fill="#29b6f6" d="M24 4A20 20 0 1 0 24 44A20 20 0 1 0 24 4Z"></path><path fill="#fff" d="M33.95,15l-3.746,19.126c0,0-0.161,0.874-1.245,0.874c-0.576,0-0.873-0.274-0.873-0.274l-8.114-6.733 l-3.97-2.001l-5.095-1.355c0,0-0.907-0.262-0.907-1.012c0-0.625,0.933-0.923,0.933-0.923l21.316-8.468 c-0.001-0.001,0.651-0.235,1.126-0.234C33.667,14,34,14.125,34,14.5C34,14.75,33.95,15,33.95,15z"></path><path fill="#b0bec5" d="M23,30.505l-3.426,3.374c0,0-0.149,0.115-0.348,0.12c-0.069,0.002-0.143-0.009-0.219-0.043 l0.964-5.965L23,30.505z"></path><path fill="#cfd8dc" d="M29.897,18.196c-0.169-0.22-0.481-0.26-0.701-0.093L16,26c0,0,2.106,5.892,2.427,6.912 c0.322,1.021,0.58,1.045,0.58,1.045l0.964-5.965l9.832-9.096C30.023,18.729,30.064,18.416,29.897,18.196z"></path>
</svg>

<symbol id="native"  viewBox="0 0 55 56" fill="none">
  <path fill-rule="evenodd" clip-rule="evenodd" d="M13.1777 29.1458V26.8542C13.1777 24.6381 11.3834 22.8438 9.16732 22.8438H6.87565C4.65961 22.8438 2.86523 24.6381 2.86523 26.8542V29.1458C2.86523 31.3619 4.65961 33.1562 6.87565 33.1562H9.16732C11.3834 33.1562 13.1777 31.3619 13.1777 29.1458Z" fill="black"/>
  <path fill-rule="evenodd" clip-rule="evenodd" d="M38.3861 34.875C38.3861 32.6613 36.5894 30.8646 34.3757 30.8646H20.6257C18.4119 30.8646 16.6152 32.6613 16.6152 34.875V48.625C16.6152 50.8388 18.4119 52.6355 20.6257 52.6355H34.3757C36.5894 52.6355 38.3861 50.8388 38.3861 48.625V34.875Z" fill="black"/>
  <path fill-rule="evenodd" clip-rule="evenodd" d="M23.4902 25.1355V18.8334C23.4902 15.3523 26.3113 12.5313 29.7923 12.5313H38.3861V7.37504C38.3861 5.16129 36.5894 3.36462 34.3757 3.36462H20.6257C18.4119 3.36462 16.6152 5.16129 16.6152 7.37504V21.125C16.6152 23.3388 18.4119 25.1355 20.6257 25.1355H23.4902Z" fill="black"/>
  <path fill-rule="evenodd" clip-rule="evenodd" d="M25.7812 28.573H34.375C37.856 28.573 40.6771 31.394 40.6771 34.8751V41.1772H48.125C50.341 41.1772 52.1354 39.3828 52.1354 37.1667V18.8334C52.1354 16.6174 50.341 14.823 48.125 14.823H29.7917C27.5756 14.823 25.7812 16.6174 25.7812 18.8334V28.573Z" fill="#F94701"/>
</symbol>

<symbol id="push" viewBox="0 0 45 45" fill="none">
  <g clip-path="url(#clip0_308_712)">
    <path d="M41.2216 20.4036C40.1865 20.4036 39.3468 19.5638 39.3468 18.5287C39.3468 13.2694 37.2992 8.32689 33.581 4.60665C32.848 3.87365 32.848 2.68884 33.581 1.95551C34.314 1.22251 35.4991 1.22251 36.2321 1.95551C40.6593 6.38231 43.0965 12.2682 43.0965 18.5287C43.0965 19.5638 42.2568 20.4036 41.2216 20.4036Z" fill="#F94701"/>
    <path d="M3.72059 20.4036C2.68581 20.4036 1.8457 19.5638 1.8457 18.5287C1.8457 12.2682 4.28329 6.38231 8.7101 1.95551C9.44309 1.22251 10.6282 1.22251 11.3612 1.95551C12.0946 2.68884 12.0946 3.87365 11.3612 4.60665C7.64305 8.32483 5.59582 13.2694 5.59582 18.5287C5.59582 19.5638 4.75571 20.4036 3.72059 20.4036Z" fill="#F94701"/>
    <path d="M40.0566 31.712C37.2215 29.3156 35.5958 25.8131 35.5958 22.1024V16.875C35.5958 10.277 30.6945 4.8151 24.3458 3.90015V1.87489C24.3458 0.838051 23.5057 0 22.4709 0C21.4358 0 20.5957 0.838051 20.5957 1.87489V3.90015C14.2453 4.8151 9.3457 10.277 9.3457 16.875V22.1024C9.3457 25.8131 7.72007 29.3156 4.86843 31.7268C4.13887 32.3513 3.7207 33.2587 3.7207 34.2186C3.7207 36.0283 5.19253 37.5001 7.00218 37.5001H37.9397C39.749 37.5001 41.2208 36.0283 41.2208 34.2186C41.2208 33.2587 40.8027 32.3513 40.0566 31.712Z" fill="black"/>
    <path d="M22.4708 45C25.8663 45 28.7069 42.5792 29.3596 39.375H15.582C16.2343 42.5792 19.075 45 22.4708 45Z" fill="black"/>
  </g>
  <defs>
    <clipPath id="clip0_308_712">
      <rect width="45" height="45" fill="white"/>
    </clipPath>
  </defs>
</symbol>
</svg>