<svg xmlns="http://www.w3.org/2000/svg" xmlns:xlink="http://www.w3.org/1999/xlink" xmlns:svgjs="http://svgjs.com/svgjs" width="62" height="62"><svg xmlns="http://www.w3.org/2000/svg" width="62" height="62" fill="none"><path fill-rule="evenodd" clip-rule="evenodd" d="M18.612 38.523H4.952c-2.718 0-4.942 2.185-4.942 4.855V56.79c0 2.669 2.224 4.853 4.943 4.853H18.61c2.72 0 4.944-2.184 4.944-4.853V43.378c0-2.67-2.225-4.855-4.944-4.855z" fill="#1B1F25"/><path fill-rule="evenodd" clip-rule="evenodd" d="M16.705 13.463H4.953c-2.719 0-4.943 2.185-4.943 4.855V31.73c0 2.67 2.224 4.854 4.943 4.854H18.61c.115 0 .228-.005.34-.013a21.031 21.031 0 01-2.246-23.108zm8.812 29.53a4.89 4.89 0 00-.015.384V56.79c0 2.67 2.224 4.854 4.943 4.854h13.658c2.72 0 4.943-2.185 4.943-4.854V43.377a4.72 4.72 0 00-.048-.673c-7.027 4.64-16.267 4.798-23.481.289z" fill="#F94701"/><path fill-rule="evenodd" clip-rule="evenodd" d="M40.31 26.773c4.36 1.085 7.802 4.426 8.964 8.685 2.938-2.968 4.748-7.02 4.748-11.486 0-9.1-7.513-16.478-16.78-16.478-9.267 0-16.781 7.378-16.781 16.478 0 4.466 1.81 8.518 4.748 11.486 1.16-4.259 4.605-7.6 8.964-8.685-2.988-1.19-5.095-4.07-5.095-7.43 0-4.428 3.655-8.017 8.164-8.017 4.508 0 8.163 3.59 8.163 8.017 0 3.36-2.107 6.24-5.095 7.43z" fill="#1B1F25"/><path d="M37.241 0c6.741 0 12.844 2.683 17.262 7.021 4.418 4.339 7.15 10.332 7.15 16.952 0 6.62-2.732 12.612-7.15 16.951s-10.52 7.022-17.262 7.022c-5.572 0-10.71-1.834-14.818-4.92l-2.248 2.207a4.805 4.805 0 01-1.259 4.75L8.314 60.392a4.925 4.925 0 01-2.21 1.251h-1.15C2.233 61.644.01 59.46.01 56.79v-.94a4.785 4.785 0 011.313-2.322l10.602-10.411c1.303-1.28 3.17-1.692 4.835-1.236l2.134-2.095c-3.776-4.22-6.066-9.754-6.066-15.813 0-6.62 2.733-12.612 7.15-16.951C24.397 2.683 30.5 0 37.242 0zm14.655 9.581c-3.75-3.682-8.932-5.96-14.655-5.96-5.723 0-10.905 2.278-14.656 5.96-3.75 3.683-6.07 8.771-6.07 14.391 0 5.62 2.32 10.709 6.07 14.392 3.75 3.683 8.932 5.96 14.656 5.96s10.905-2.277 14.655-5.96 6.07-8.771 6.07-14.392c0-5.62-2.32-10.708-6.07-14.39z" fill="#6B7687"/></svg><style>@media (prefers-color-scheme:light){:root{filter:none}}</style></svg>