<svg width="200" height="62" fill="none" xmlns="http://www.w3.org/2000/svg"><path fill-rule="evenodd" clip-rule="evenodd" d="M18.612 38.523H4.952c-2.718 0-4.942 2.185-4.942 4.855V56.79c0 2.669 2.224 4.853 4.943 4.853H18.61c2.72 0 4.944-2.184 4.944-4.853V43.378c0-2.67-2.225-4.855-4.944-4.855z" fill="#1B1F25"/><path fill-rule="evenodd" clip-rule="evenodd" d="M16.705 13.463H4.953c-2.719 0-4.943 2.185-4.943 4.855V31.73c0 2.67 2.224 4.854 4.943 4.854H18.61c.115 0 .228-.005.34-.013a21.031 21.031 0 01-2.246-23.108zm8.812 29.53a4.89 4.89 0 00-.015.384V56.79c0 2.67 2.224 4.854 4.943 4.854h13.658c2.72 0 4.943-2.185 4.943-4.854V43.377a4.72 4.72 0 00-.048-.673c-7.027 4.64-16.267 4.798-23.481.289z" fill="#F94701"/><path fill-rule="evenodd" clip-rule="evenodd" d="M40.31 26.773c4.36 1.085 7.802 4.426 8.964 8.685 2.938-2.968 4.748-7.02 4.748-11.486 0-9.1-7.513-16.478-16.78-16.478-9.267 0-16.781 7.378-16.781 16.478 0 4.466 1.81 8.518 4.748 11.486 1.16-4.259 4.605-7.6 8.964-8.685-2.988-1.19-5.095-4.07-5.095-7.43 0-4.428 3.655-8.017 8.164-8.017 4.508 0 8.163 3.59 8.163 8.017 0 3.36-2.107 6.24-5.095 7.43z" fill="#1B1F25"/><path d="M37.241 0c6.741 0 12.844 2.683 17.262 7.021 4.418 4.339 7.15 10.332 7.15 16.952 0 6.62-2.732 12.612-7.15 16.951s-10.52 7.022-17.262 7.022c-5.572 0-10.71-1.834-14.818-4.92l-2.248 2.207a4.805 4.805 0 01-1.259 4.75L8.314 60.392a4.925 4.925 0 01-2.21 1.251h-1.15C2.233 61.644.01 59.46.01 56.79v-.94a4.785 4.785 0 011.313-2.322l10.602-10.411c1.303-1.28 3.17-1.692 4.835-1.236l2.134-2.095c-3.776-4.22-6.066-9.754-6.066-15.813 0-6.62 2.733-12.612 7.15-16.951C24.397 2.683 30.5 0 37.242 0zm14.655 9.581c-3.75-3.682-8.932-5.96-14.655-5.96-5.723 0-10.905 2.278-14.656 5.96-3.75 3.683-6.07 8.771-6.07 14.391 0 5.62 2.32 10.709 6.07 14.392 3.75 3.683 8.932 5.96 14.656 5.96s10.905-2.277 14.655-5.96 6.07-8.771 6.07-14.392c0-5.62-2.32-10.708-6.07-14.39zm45.295 37.151c-1.132 0-2.115-.176-2.949-.528-.833-.351-1.484-.862-1.953-1.533-.469-.677-.723-1.497-.762-2.46h2.598c.04.507.195.93.469 1.269a2.53 2.53 0 001.074.752c.45.169.947.254 1.494.254.573 0 1.078-.088 1.514-.264.436-.176.778-.42 1.025-.733a1.71 1.71 0 00.371-1.093c0-.378-.11-.687-.332-.928-.221-.247-.527-.456-.918-.625-.39-.17-.85-.319-1.377-.45l-1.65-.429c-1.198-.306-2.142-.771-2.832-1.396-.69-.632-1.035-1.472-1.035-2.52 0-.86.23-1.608.693-2.246.462-.645 1.094-1.146 1.895-1.504.807-.358 1.718-.537 2.734-.537 1.035 0 1.943.179 2.725.537.781.358 1.393.853 1.836 1.484.442.632.673 1.358.693 2.178h-2.549c-.065-.625-.342-1.107-.83-1.445-.482-.345-1.117-.518-1.904-.518-.547 0-1.02.082-1.416.245-.39.162-.69.387-.899.673a1.618 1.618 0 00-.312.977c0 .403.12.735.361.996.248.254.56.459.938.615.384.156.774.287 1.171.39l1.358.343c.547.13 1.074.306 1.582.527a5.53 5.53 0 011.367.82 3.5 3.5 0 01.967 1.192c.241.468.361 1.019.361 1.65 0 .846-.218 1.595-.654 2.246-.436.645-1.065 1.15-1.885 1.514-.82.364-1.81.547-2.969.547zm11.817-.01c-1.094 0-2.038-.228-2.832-.684a4.67 4.67 0 01-1.836-1.953c-.423-.84-.635-1.83-.635-2.968 0-1.127.212-2.113.635-2.96.423-.852 1.019-1.516 1.787-1.992.768-.475 1.673-.713 2.715-.713.67 0 1.305.108 1.904.323a4.37 4.37 0 011.602.996c.468.449.836 1.022 1.103 1.718.267.69.401 1.514.401 2.471v.801h-8.946v-1.729h7.666l-1.201.508c0-.618-.094-1.155-.283-1.611a2.392 2.392 0 00-.84-1.084c-.371-.26-.833-.39-1.387-.39-.553 0-1.025.13-1.416.39-.39.26-.687.612-.888 1.055a3.445 3.445 0 00-.303 1.465v1.2c0 .665.114 1.234.342 1.71.234.468.56.827.976 1.074.423.247.915.371 1.475.371.364 0 .696-.052.996-.156.306-.104.566-.26.781-.469a2.11 2.11 0 00.508-.791l2.402.283a3.845 3.845 0 01-.869 1.66c-.416.47-.954.834-1.611 1.094-.651.254-1.4.38-2.246.38zm9.385.01c-.697 0-1.322-.124-1.875-.371a3.037 3.037 0 01-1.309-1.114c-.319-.488-.479-1.09-.479-1.806 0-.612.114-1.12.342-1.524.228-.403.537-.726.928-.967.397-.24.843-.423 1.338-.546a9.812 9.812 0 011.533-.274 83.554 83.554 0 001.563-.185c.397-.053.683-.137.859-.254.182-.117.273-.3.273-.547v-.049c0-.527-.156-.938-.468-1.23-.313-.294-.769-.44-1.368-.44-.631 0-1.132.137-1.503.41-.365.274-.612.596-.743.967l-2.392-.342c.189-.664.501-1.217.937-1.66a4.08 4.08 0 011.592-1.006 6.12 6.12 0 012.09-.342 6.73 6.73 0 011.562.186c.521.117 1 .319 1.436.605.436.287.784.671 1.045 1.153.26.481.391 1.084.391 1.806v7.305h-2.471v-1.504h-.078c-.157.3-.378.583-.664.85-.28.26-.632.472-1.055.634-.417.163-.912.245-1.484.245zm.654-1.895c.521 0 .97-.1 1.348-.303.377-.208.67-.481.878-.82a2.13 2.13 0 00.313-1.123v-1.28a1.36 1.36 0 01-.41.186 8.358 8.358 0 01-.645.147 22.907 22.907 0 01-1.308.195c-.384.052-.73.14-1.035.264-.3.117-.538.28-.713.488-.176.208-.264.479-.264.81 0 .476.172.834.518 1.075.345.24.784.361 1.318.361zm7.002 1.67V35.59h2.49v1.836h.117c.196-.638.537-1.126 1.026-1.465a2.822 2.822 0 011.67-.517c.136 0 .293.006.468.02.183.012.332.029.45.048v2.363a2.537 2.537 0 00-.518-.097 6.114 6.114 0 00-.674-.04c-.475 0-.898.102-1.269.303a2.296 2.296 0 00-.879.83c-.209.352-.313.762-.313 1.23v6.407h-2.568zm11.494.215c-1.087 0-2.022-.238-2.803-.713a4.76 4.76 0 01-1.797-1.992c-.416-.847-.625-1.82-.625-2.92 0-1.113.212-2.093.635-2.94a4.757 4.757 0 011.807-1.982c.781-.482 1.702-.723 2.763-.723.892 0 1.68.163 2.364.489a4.027 4.027 0 012.334 3.437h-2.461a2.477 2.477 0 00-.381-.947 2.03 2.03 0 00-.742-.664c-.3-.163-.658-.244-1.075-.244-.527 0-.989.143-1.386.43-.391.28-.697.683-.918 1.21-.222.528-.332 1.16-.332 1.895 0 .742.107 1.383.322 1.924.215.534.521.947.918 1.24.397.286.863.43 1.396.43.567 0 1.045-.166 1.436-.498.397-.333.651-.792.762-1.377h2.461c-.059.774-.287 1.458-.684 2.05a4.108 4.108 0 01-1.611 1.397c-.677.332-1.472.498-2.383.498zm8.633-6.602v6.387h-2.569v-14.55h2.51v5.497h.137a3.168 3.168 0 011.182-1.465c.533-.358 1.22-.537 2.06-.537.755 0 1.413.16 1.973.479a3.257 3.257 0 011.318 1.396c.313.612.469 1.358.469 2.237v6.943h-2.578v-6.543c0-.742-.189-1.315-.567-1.719-.377-.41-.905-.615-1.582-.615a2.51 2.51 0 00-1.22.293 2.08 2.08 0 00-.83.85c-.202.364-.303.813-.303 1.347zm16.386 6.387l-4.101-14.55h2.832l2.627 10.693h.127l2.803-10.694h2.588l2.783 10.703h.146l2.608-10.703h2.851l-4.111 14.551h-2.608l-2.91-10.195h-.117l-2.9 10.195h-2.618zm20.098.215c-1.094 0-2.038-.228-2.832-.684a4.67 4.67 0 01-1.836-1.953c-.423-.84-.635-1.83-.635-2.968 0-1.127.212-2.113.635-2.96.423-.852 1.019-1.516 1.787-1.992.769-.475 1.673-.713 2.715-.713a5.59 5.59 0 011.904.323c.606.215 1.14.547 1.602.996.469.449.837 1.022 1.104 1.718.266.69.4 1.514.4 2.471v.801h-8.945v-1.729h7.666l-1.202.508c0-.618-.094-1.155-.283-1.611a2.392 2.392 0 00-.84-1.084c-.371-.26-.833-.39-1.386-.39-.554 0-1.026.13-1.416.39a2.47 2.47 0 00-.889 1.055 3.445 3.445 0 00-.303 1.465v1.2c0 .665.114 1.234.342 1.71.234.468.56.827.977 1.074.423.247.914.371 1.474.371.365 0 .697-.052.996-.156a2.06 2.06 0 00.782-.469 2.12 2.12 0 00.507-.791l2.403.283a3.856 3.856 0 01-.869 1.66c-.417.47-.954.834-1.612 1.094-.651.254-1.399.38-2.246.38zm12.031-.02c-.618 0-1.136-.104-1.552-.312a3.353 3.353 0 01-.996-.762 4.34 4.34 0 01-.567-.85h-.156v1.73h-2.52V31.955h2.569v5.44h.107a4.8 4.8 0 01.557-.84c.241-.306.566-.566.976-.781.417-.215.948-.323 1.592-.323.84 0 1.598.215 2.276.645.677.43 1.214 1.061 1.611 1.895.404.833.605 1.858.605 3.076 0 1.198-.195 2.216-.586 3.056-.39.84-.927 1.481-1.611 1.924-.677.436-1.445.654-2.305.654zm-.703-2.109c.567 0 1.039-.153 1.416-.459.384-.306.674-.726.869-1.26.196-.534.293-1.14.293-1.816 0-.677-.097-1.28-.293-1.807-.195-.527-.481-.94-.859-1.24-.378-.3-.853-.45-1.426-.45-.553 0-1.022.144-1.406.43-.378.287-.667.694-.869 1.221-.195.521-.293 1.136-.293 1.846 0 .703.098 1.322.293 1.855.202.528.495.941.879 1.24.384.294.849.44 1.396.44z" fill="#6B7687"/></svg>